# Tiled2Unity generated file. Do not modify by hand.
# Wavefront file for 'overworldFinal_mesh_0007.obj'

# Vertices (Count = 548)
v -2976 -736 0
v -3008 -736 0
v -3008 -704 0
v -2976 -704 0
v -3008 -736 0
v -3040 -736 0
v -3040 -704 0
v -3008 -704 0
v -2592 -768 0
v -2624 -768 0
v -2624 -736 0
v -2592 -736 0
v -2624 -768 0
v -2656 -768 0
v -2656 -736 0
v -2624 -736 0
v -2976 -768 0
v -3008 -768 0
v -3008 -736 0
v -2976 -736 0
v -3008 -768 0
v -3040 -768 0
v -3040 -736 0
v -3008 -736 0
v -2592 -800 0
v -2624 -800 0
v -2624 -768 0
v -2592 -768 0
v -2624 -800 0
v -2656 -800 0
v -2656 -768 0
v -2624 -768 0
v -2976 -800 0
v -3008 -800 0
v -3008 -768 0
v -2976 -768 0
v -3008 -800 0
v -3040 -800 0
v -3040 -768 0
v -3008 -768 0
v -2592 -832 0
v -2624 -832 0
v -2624 -800 0
v -2592 -800 0
v -2624 -832 0
v -2656 -832 0
v -2656 -800 0
v -2624 -800 0
v -2816 -864 0
v -2848 -864 0
v -2848 -832 0
v -2816 -832 0
v -2848 -864 0
v -2880 -864 0
v -2880 -832 0
v -2848 -832 0
v -2816 -896 0
v -2848 -896 0
v -2848 -864 0
v -2816 -864 0
v -2848 -896 0
v -2880 -896 0
v -2880 -864 0
v -2848 -864 0
v -2816 -928 0
v -2848 -928 0
v -2848 -896 0
v -2816 -896 0
v -2848 -928 0
v -2880 -928 0
v -2880 -896 0
v -2848 -896 0
v -2464 -960 0
v -2496 -960 0
v -2496 -928 0
v -2464 -928 0
v -2496 -960 0
v -2528 -960 0
v -2528 -928 0
v -2496 -928 0
v -3008 -960 0
v -3040 -960 0
v -3040 -928 0
v -3008 -928 0
v -3104 -960 0
v -3136 -960 0
v -3136 -928 0
v -3104 -928 0
v -3136 -960 0
v -3168 -960 0
v -3168 -928 0
v -3136 -928 0
v -2464 -992 0
v -2496 -992 0
v -2496 -960 0
v -2464 -960 0
v -2496 -992 0
v -2528 -992 0
v -2528 -960 0
v -2496 -960 0
v -2688 -992 0
v -2720 -992 0
v -2720 -960 0
v -2688 -960 0
v -2720 -992 0
v -2752 -992 0
v -2752 -960 0
v -2720 -960 0
v -3008 -992 0
v -3040 -992 0
v -3040 -960 0
v -3008 -960 0
v -3104 -992 0
v -3136 -992 0
v -3136 -960 0
v -3104 -960 0
v -3136 -992 0
v -3168 -992 0
v -3168 -960 0
v -3136 -960 0
v -2400 -1024 0
v -2432 -1024 0
v -2432 -992 0
v -2400 -992 0
v -2432 -1024 0
v -2464 -1024 0
v -2464 -992 0
v -2432 -992 0
v -2464 -1024 0
v -2496 -1024 0
v -2496 -992 0
v -2464 -992 0
v -2496 -1024 0
v -2528 -1024 0
v -2528 -992 0
v -2496 -992 0
v -2688 -1024 0
v -2720 -1024 0
v -2720 -992 0
v -2688 -992 0
v -2720 -1024 0
v -2752 -1024 0
v -2752 -992 0
v -2720 -992 0
v -3104 -1024 0
v -3136 -1024 0
v -3136 -992 0
v -3104 -992 0
v -3136 -1024 0
v -3168 -1024 0
v -3168 -992 0
v -3136 -992 0
v -2336 -1056 0
v -2368 -1056 0
v -2368 -1024 0
v -2336 -1024 0
v -2368 -1056 0
v -2400 -1056 0
v -2400 -1024 0
v -2368 -1024 0
v -2400 -1056 0
v -2432 -1056 0
v -2432 -1024 0
v -2400 -1024 0
v -2432 -1056 0
v -2464 -1056 0
v -2464 -1024 0
v -2432 -1024 0
v -2464 -1056 0
v -2496 -1056 0
v -2496 -1024 0
v -2464 -1024 0
v -2496 -1056 0
v -2528 -1056 0
v -2528 -1024 0
v -2496 -1024 0
v -2688 -1056 0
v -2720 -1056 0
v -2720 -1024 0
v -2688 -1024 0
v -2720 -1056 0
v -2752 -1056 0
v -2752 -1024 0
v -2720 -1024 0
v -2912 -1056 0
v -2944 -1056 0
v -2944 -1024 0
v -2912 -1024 0
v -2944 -1056 0
v -2976 -1056 0
v -2976 -1024 0
v -2944 -1024 0
v -3008 -1056 0
v -3040 -1056 0
v -3040 -1024 0
v -3008 -1024 0
v -3040 -1056 0
v -3072 -1056 0
v -3072 -1024 0
v -3040 -1024 0
v -3104 -1056 0
v -3136 -1056 0
v -3136 -1024 0
v -3104 -1024 0
v -3136 -1056 0
v -3168 -1056 0
v -3168 -1024 0
v -3136 -1024 0
v -2336 -1088 0
v -2368 -1088 0
v -2368 -1056 0
v -2336 -1056 0
v -2368 -1088 0
v -2400 -1088 0
v -2400 -1056 0
v -2368 -1056 0
v -2400 -1088 0
v -2432 -1088 0
v -2432 -1056 0
v -2400 -1056 0
v -2432 -1088 0
v -2464 -1088 0
v -2464 -1056 0
v -2432 -1056 0
v -2464 -1088 0
v -2496 -1088 0
v -2496 -1056 0
v -2464 -1056 0
v -2496 -1088 0
v -2528 -1088 0
v -2528 -1056 0
v -2496 -1056 0
v -2912 -1088 0
v -2944 -1088 0
v -2944 -1056 0
v -2912 -1056 0
v -2944 -1088 0
v -2976 -1088 0
v -2976 -1056 0
v -2944 -1056 0
v -3008 -1088 0
v -3040 -1088 0
v -3040 -1056 0
v -3008 -1056 0
v -3040 -1088 0
v -3072 -1088 0
v -3072 -1056 0
v -3040 -1056 0
v -3104 -1088 0
v -3136 -1088 0
v -3136 -1056 0
v -3104 -1056 0
v -3136 -1088 0
v -3168 -1088 0
v -3168 -1056 0
v -3136 -1056 0
v -2336 -1120 0
v -2368 -1120 0
v -2368 -1088 0
v -2336 -1088 0
v -2368 -1120 0
v -2400 -1120 0
v -2400 -1088 0
v -2368 -1088 0
v -2464 -1120 0
v -2496 -1120 0
v -2496 -1088 0
v -2464 -1088 0
v -2496 -1120 0
v -2528 -1120 0
v -2528 -1088 0
v -2496 -1088 0
v -2912 -1120 0
v -2944 -1120 0
v -2944 -1088 0
v -2912 -1088 0
v -2944 -1120 0
v -2976 -1120 0
v -2976 -1088 0
v -2944 -1088 0
v -3008 -1120 0
v -3040 -1120 0
v -3040 -1088 0
v -3008 -1088 0
v -3040 -1120 0
v -3072 -1120 0
v -3072 -1088 0
v -3040 -1088 0
v -2752 -2112 0
v -2784 -2112 0
v -2784 -2080 0
v -2752 -2080 0
v -2784 -2112 0
v -2816 -2112 0
v -2816 -2080 0
v -2784 -2080 0
v -3072 -2112 0
v -3104 -2112 0
v -3104 -2080 0
v -3072 -2080 0
v -3104 -2112 0
v -3136 -2112 0
v -3136 -2080 0
v -3104 -2080 0
v -2752 -2144 0
v -2784 -2144 0
v -2784 -2112 0
v -2752 -2112 0
v -2784 -2144 0
v -2816 -2144 0
v -2816 -2112 0
v -2784 -2112 0
v -3072 -2144 0
v -3104 -2144 0
v -3104 -2112 0
v -3072 -2112 0
v -3104 -2144 0
v -3136 -2144 0
v -3136 -2112 0
v -3104 -2112 0
v -256 -2176 0
v -288 -2176 0
v -288 -2144 0
v -256 -2144 0
v -288 -2176 0
v -320 -2176 0
v -320 -2144 0
v -288 -2144 0
v -2720 -2176 0
v -2752 -2176 0
v -2752 -2144 0
v -2720 -2144 0
v -2752 -2176 0
v -2784 -2176 0
v -2784 -2144 0
v -2752 -2144 0
v -2784 -2176 0
v -2816 -2176 0
v -2816 -2144 0
v -2784 -2144 0
v -3072 -2176 0
v -3104 -2176 0
v -3104 -2144 0
v -3072 -2144 0
v -3104 -2176 0
v -3136 -2176 0
v -3136 -2144 0
v -3104 -2144 0
v -256 -2208 0
v -288 -2208 0
v -288 -2176 0
v -256 -2176 0
v -288 -2208 0
v -320 -2208 0
v -320 -2176 0
v -288 -2176 0
v -2720 -2208 0
v -2752 -2208 0
v -2752 -2176 0
v -2720 -2176 0
v -2752 -2208 0
v -2784 -2208 0
v -2784 -2176 0
v -2752 -2176 0
v -2816 -2208 0
v -2848 -2208 0
v -2848 -2176 0
v -2816 -2176 0
v -2848 -2208 0
v -2880 -2208 0
v -2880 -2176 0
v -2848 -2176 0
v -256 -2240 0
v -288 -2240 0
v -288 -2208 0
v -256 -2208 0
v -288 -2240 0
v -320 -2240 0
v -320 -2208 0
v -288 -2208 0
v -2432 -2240 0
v -2464 -2240 0
v -2464 -2208 0
v -2432 -2208 0
v -2464 -2240 0
v -2496 -2240 0
v -2496 -2208 0
v -2464 -2208 0
v -2560 -2240 0
v -2592 -2240 0
v -2592 -2208 0
v -2560 -2208 0
v -2592 -2240 0
v -2624 -2240 0
v -2624 -2208 0
v -2592 -2208 0
v -2720 -2240 0
v -2752 -2240 0
v -2752 -2208 0
v -2720 -2208 0
v -2752 -2240 0
v -2784 -2240 0
v -2784 -2208 0
v -2752 -2208 0
v -2816 -2240 0
v -2848 -2240 0
v -2848 -2208 0
v -2816 -2208 0
v -2848 -2240 0
v -2880 -2240 0
v -2880 -2208 0
v -2848 -2208 0
v -2912 -2240 0
v -2944 -2240 0
v -2944 -2208 0
v -2912 -2208 0
v -2944 -2240 0
v -2976 -2240 0
v -2976 -2208 0
v -2944 -2208 0
v -224 -2272 0
v -256 -2272 0
v -256 -2240 0
v -224 -2240 0
v -256 -2272 0
v -288 -2272 0
v -288 -2240 0
v -256 -2240 0
v -352 -2272 0
v -384 -2272 0
v -384 -2240 0
v -352 -2240 0
v -384 -2272 0
v -416 -2272 0
v -416 -2240 0
v -384 -2240 0
v -2432 -2272 0
v -2464 -2272 0
v -2464 -2240 0
v -2432 -2240 0
v -2464 -2272 0
v -2496 -2272 0
v -2496 -2240 0
v -2464 -2240 0
v -2560 -2272 0
v -2592 -2272 0
v -2592 -2240 0
v -2560 -2240 0
v -2592 -2272 0
v -2624 -2272 0
v -2624 -2240 0
v -2592 -2240 0
v -2816 -2272 0
v -2848 -2272 0
v -2848 -2240 0
v -2816 -2240 0
v -2848 -2272 0
v -2880 -2272 0
v -2880 -2240 0
v -2848 -2240 0
v -2912 -2272 0
v -2944 -2272 0
v -2944 -2240 0
v -2912 -2240 0
v -2944 -2272 0
v -2976 -2272 0
v -2976 -2240 0
v -2944 -2240 0
v -3104 -2272 0
v -3136 -2272 0
v -3136 -2240 0
v -3104 -2240 0
v -3136 -2272 0
v -3168 -2272 0
v -3168 -2240 0
v -3136 -2240 0
v -224 -2304 0
v -256 -2304 0
v -256 -2272 0
v -224 -2272 0
v -256 -2304 0
v -288 -2304 0
v -288 -2272 0
v -256 -2272 0
v -352 -2304 0
v -384 -2304 0
v -384 -2272 0
v -352 -2272 0
v -384 -2304 0
v -416 -2304 0
v -416 -2272 0
v -384 -2272 0
v -2432 -2304 0
v -2464 -2304 0
v -2464 -2272 0
v -2432 -2272 0
v -2464 -2304 0
v -2496 -2304 0
v -2496 -2272 0
v -2464 -2272 0
v -2560 -2304 0
v -2592 -2304 0
v -2592 -2272 0
v -2560 -2272 0
v -2592 -2304 0
v -2624 -2304 0
v -2624 -2272 0
v -2592 -2272 0
v -2912 -2304 0
v -2944 -2304 0
v -2944 -2272 0
v -2912 -2272 0
v -2944 -2304 0
v -2976 -2304 0
v -2976 -2272 0
v -2944 -2272 0
v -3104 -2304 0
v -3136 -2304 0
v -3136 -2272 0
v -3104 -2272 0
v -3136 -2304 0
v -3168 -2304 0
v -3168 -2272 0
v -3136 -2272 0
v -224 -2336 0
v -256 -2336 0
v -256 -2304 0
v -224 -2304 0
v -256 -2336 0
v -288 -2336 0
v -288 -2304 0
v -256 -2304 0
v -352 -2336 0
v -384 -2336 0
v -384 -2304 0
v -352 -2304 0
v -384 -2336 0
v -416 -2336 0
v -416 -2304 0
v -384 -2304 0
v -3104 -2336 0
v -3136 -2336 0
v -3136 -2304 0
v -3104 -2304 0
v -3136 -2336 0
v -3168 -2336 0
v -3168 -2304 0
v -3136 -2304 0

# Texture cooridinates (Count = 32)
vt 0.4333333 0.5048544
vt 0.5666667 0.5048544
vt 0.5666667 0.6601942
vt 0.4333333 0.6601942
vt 0.575 0.5048544
vt 0.7083333 0.5048544
vt 0.7083333 0.6601942
vt 0.575 0.6601942
vt 0.4333333 0.3398058
vt 0.5666667 0.3398058
vt 0.5666667 0.4951456
vt 0.4333333 0.4951456
vt 0.575 0.3398058
vt 0.7083333 0.3398058
vt 0.7083333 0.4951456
vt 0.575 0.4951456
vt 0.4333333 0.1747573
vt 0.5666667 0.1747573
vt 0.5666667 0.3300971
vt 0.4333333 0.3300971
vt 0.575 0.1747573
vt 0.7083333 0.1747573
vt 0.7083333 0.3300971
vt 0.575 0.3300971
vt 0.8583333 0.8349515
vt 0.9916667 0.8349515
vt 0.9916667 0.9902912
vt 0.8583333 0.9902912
vt 0.8583333 0.6699029
vt 0.9916667 0.6699029
vt 0.9916667 0.8252427
vt 0.8583333 0.8252427

# Normal
vn 0 0 -1

# Mesh description
g overworldFinal_mesh_0007

# Faces
f 1/1/1 2/2/1 3/3/1 4/4/1
f 5/5/1 6/6/1 7/7/1 8/8/1
f 9/1/1 10/2/1 11/3/1 12/4/1
f 13/5/1 14/6/1 15/7/1 16/8/1
f 17/9/1 18/10/1 19/11/1 20/12/1
f 21/13/1 22/14/1 23/15/1 24/16/1
f 25/9/1 26/10/1 27/11/1 28/12/1
f 29/13/1 30/14/1 31/15/1 32/16/1
f 33/17/1 34/18/1 35/19/1 36/20/1
f 37/21/1 38/22/1 39/23/1 40/24/1
f 41/17/1 42/18/1 43/19/1 44/20/1
f 45/21/1 46/22/1 47/23/1 48/24/1
f 49/1/1 50/2/1 51/3/1 52/4/1
f 53/5/1 54/6/1 55/7/1 56/8/1
f 57/9/1 58/10/1 59/11/1 60/12/1
f 61/13/1 62/14/1 63/15/1 64/16/1
f 65/17/1 66/18/1 67/19/1 68/20/1
f 69/21/1 70/22/1 71/23/1 72/24/1
f 73/1/1 74/2/1 75/3/1 76/4/1
f 77/5/1 78/6/1 79/7/1 80/8/1
f 81/25/1 82/26/1 83/27/1 84/28/1
f 85/1/1 86/2/1 87/3/1 88/4/1
f 89/5/1 90/6/1 91/7/1 92/8/1
f 93/9/1 94/10/1 95/11/1 96/12/1
f 97/13/1 98/14/1 99/15/1 100/16/1
f 101/1/1 102/2/1 103/3/1 104/4/1
f 105/5/1 106/6/1 107/7/1 108/8/1
f 109/29/1 110/30/1 111/31/1 112/32/1
f 113/9/1 114/10/1 115/11/1 116/12/1
f 117/13/1 118/14/1 119/15/1 120/16/1
f 121/1/1 122/2/1 123/3/1 124/4/1
f 125/5/1 126/6/1 127/7/1 128/8/1
f 129/17/1 130/18/1 131/19/1 132/20/1
f 133/21/1 134/22/1 135/23/1 136/24/1
f 137/9/1 138/10/1 139/11/1 140/12/1
f 141/13/1 142/14/1 143/15/1 144/16/1
f 145/17/1 146/18/1 147/19/1 148/20/1
f 149/21/1 150/22/1 151/23/1 152/24/1
f 153/1/1 154/2/1 155/3/1 156/4/1
f 157/5/1 158/6/1 159/7/1 160/8/1
f 161/9/1 162/10/1 163/11/1 164/12/1
f 165/13/1 166/14/1 167/15/1 168/16/1
f 169/1/1 170/2/1 171/3/1 172/4/1
f 173/5/1 174/6/1 175/7/1 176/8/1
f 177/17/1 178/18/1 179/19/1 180/20/1
f 181/21/1 182/22/1 183/23/1 184/24/1
f 185/1/1 186/2/1 187/3/1 188/4/1
f 189/5/1 190/6/1 191/7/1 192/8/1
f 193/1/1 194/2/1 195/3/1 196/4/1
f 197/5/1 198/6/1 199/7/1 200/8/1
f 201/9/1 202/10/1 203/11/1 204/12/1
f 205/13/1 206/14/1 207/15/1 208/16/1
f 209/9/1 210/10/1 211/11/1 212/12/1
f 213/13/1 214/14/1 215/15/1 216/16/1
f 217/17/1 218/18/1 219/19/1 220/20/1
f 221/21/1 222/22/1 223/23/1 224/24/1
f 225/9/1 226/10/1 227/11/1 228/12/1
f 229/13/1 230/14/1 231/15/1 232/16/1
f 233/9/1 234/10/1 235/11/1 236/12/1
f 237/13/1 238/14/1 239/15/1 240/16/1
f 241/9/1 242/10/1 243/11/1 244/12/1
f 245/13/1 246/14/1 247/15/1 248/16/1
f 249/17/1 250/18/1 251/19/1 252/20/1
f 253/21/1 254/22/1 255/23/1 256/24/1
f 257/17/1 258/18/1 259/19/1 260/20/1
f 261/21/1 262/22/1 263/23/1 264/24/1
f 265/17/1 266/18/1 267/19/1 268/20/1
f 269/21/1 270/22/1 271/23/1 272/24/1
f 273/17/1 274/18/1 275/19/1 276/20/1
f 277/21/1 278/22/1 279/23/1 280/24/1
f 281/17/1 282/18/1 283/19/1 284/20/1
f 285/21/1 286/22/1 287/23/1 288/24/1
f 289/1/1 290/2/1 291/3/1 292/4/1
f 293/5/1 294/6/1 295/7/1 296/8/1
f 297/1/1 298/2/1 299/3/1 300/4/1
f 301/5/1 302/6/1 303/7/1 304/8/1
f 305/9/1 306/10/1 307/11/1 308/12/1
f 309/13/1 310/14/1 311/15/1 312/16/1
f 313/9/1 314/10/1 315/11/1 316/12/1
f 317/13/1 318/14/1 319/15/1 320/16/1
f 321/1/1 322/2/1 323/3/1 324/4/1
f 325/5/1 326/6/1 327/7/1 328/8/1
f 329/1/1 330/2/1 331/3/1 332/4/1
f 333/17/1 334/18/1 335/19/1 336/20/1
f 337/21/1 338/22/1 339/23/1 340/24/1
f 341/17/1 342/18/1 343/19/1 344/20/1
f 345/21/1 346/22/1 347/23/1 348/24/1
f 349/9/1 350/10/1 351/11/1 352/12/1
f 353/13/1 354/14/1 355/15/1 356/16/1
f 357/9/1 358/10/1 359/11/1 360/12/1
f 361/13/1 362/14/1 363/15/1 364/16/1
f 365/1/1 366/2/1 367/3/1 368/4/1
f 369/5/1 370/6/1 371/7/1 372/8/1
f 373/17/1 374/18/1 375/19/1 376/20/1
f 377/21/1 378/22/1 379/23/1 380/24/1
f 381/1/1 382/2/1 383/3/1 384/4/1
f 385/5/1 386/6/1 387/7/1 388/8/1
f 389/1/1 390/2/1 391/3/1 392/4/1
f 393/5/1 394/6/1 395/7/1 396/8/1
f 397/17/1 398/18/1 399/19/1 400/20/1
f 401/21/1 402/22/1 403/23/1 404/24/1
f 405/9/1 406/10/1 407/11/1 408/12/1
f 409/13/1 410/14/1 411/15/1 412/16/1
f 413/1/1 414/2/1 415/3/1 416/4/1
f 417/5/1 418/6/1 419/7/1 420/8/1
f 421/1/1 422/2/1 423/3/1 424/4/1
f 425/5/1 426/6/1 427/7/1 428/8/1
f 429/1/1 430/2/1 431/3/1 432/4/1
f 433/5/1 434/6/1 435/7/1 436/8/1
f 437/9/1 438/10/1 439/11/1 440/12/1
f 441/13/1 442/14/1 443/15/1 444/16/1
f 445/9/1 446/10/1 447/11/1 448/12/1
f 449/13/1 450/14/1 451/15/1 452/16/1
f 453/17/1 454/18/1 455/19/1 456/20/1
f 457/21/1 458/22/1 459/23/1 460/24/1
f 461/9/1 462/10/1 463/11/1 464/12/1
f 465/13/1 466/14/1 467/15/1 468/16/1
f 469/1/1 470/2/1 471/3/1 472/4/1
f 473/5/1 474/6/1 475/7/1 476/8/1
f 477/9/1 478/10/1 479/11/1 480/12/1
f 481/13/1 482/14/1 483/15/1 484/16/1
f 485/9/1 486/10/1 487/11/1 488/12/1
f 489/13/1 490/14/1 491/15/1 492/16/1
f 493/17/1 494/18/1 495/19/1 496/20/1
f 497/21/1 498/22/1 499/23/1 500/24/1
f 501/17/1 502/18/1 503/19/1 504/20/1
f 505/21/1 506/22/1 507/23/1 508/24/1
f 509/17/1 510/18/1 511/19/1 512/20/1
f 513/21/1 514/22/1 515/23/1 516/24/1
f 517/9/1 518/10/1 519/11/1 520/12/1
f 521/13/1 522/14/1 523/15/1 524/16/1
f 525/17/1 526/18/1 527/19/1 528/20/1
f 529/21/1 530/22/1 531/23/1 532/24/1
f 533/17/1 534/18/1 535/19/1 536/20/1
f 537/21/1 538/22/1 539/23/1 540/24/1
f 541/17/1 542/18/1 543/19/1 544/20/1
f 545/21/1 546/22/1 547/23/1 548/24/1

