# Tiled2Unity generated file. Do not modify by hand.
# Wavefront file for 'dungeon_mesh_0003.obj'

# Vertices (Count = 56)
v -736 -64 0
v -768 -64 0
v -768 -32 0
v -736 -32 0
v -768 -64 0
v -800 -64 0
v -800 -32 0
v -768 -32 0
v -736 -96 0
v -768 -96 0
v -768 -64 0
v -736 -64 0
v -768 -96 0
v -800 -96 0
v -800 -64 0
v -768 -64 0
v -736 -128 0
v -768 -128 0
v -768 -96 0
v -736 -96 0
v -768 -128 0
v -800 -128 0
v -800 -96 0
v -768 -96 0
v -704 -160 0
v -736 -160 0
v -736 -128 0
v -704 -128 0
v -736 -160 0
v -768 -160 0
v -768 -128 0
v -736 -128 0
v -768 -160 0
v -800 -160 0
v -800 -128 0
v -768 -128 0
v -704 -192 0
v -736 -192 0
v -736 -160 0
v -704 -160 0
v -736 -192 0
v -768 -192 0
v -768 -160 0
v -736 -160 0
v -768 -192 0
v -800 -192 0
v -800 -160 0
v -768 -160 0
v -800 -192 0
v -832 -192 0
v -832 -160 0
v -800 -160 0
v -704 -224 0
v -736 -224 0
v -736 -192 0
v -704 -192 0

# Texture cooridinates (Count = 36)
vt 0.2916667 0.6699029
vt 0.425 0.6699029
vt 0.425 0.8252427
vt 0.2916667 0.8252427
vt 0.7166666 0.5048544
vt 0.85 0.5048544
vt 0.85 0.6601942
vt 0.7166666 0.6601942
vt 0.8583333 0.5048544
vt 0.9916667 0.5048544
vt 0.9916667 0.6601942
vt 0.8583333 0.6601942
vt 0.4333333 0.8349515
vt 0.5666667 0.8349515
vt 0.5666667 0.9902912
vt 0.4333333 0.9902912
vt 0.7166666 0.3398058
vt 0.85 0.3398058
vt 0.85 0.4951456
vt 0.7166666 0.4951456
vt 0.8583333 0.3398058
vt 0.9916667 0.3398058
vt 0.9916667 0.4951456
vt 0.8583333 0.4951456
vt 0.2916667 0.8349515
vt 0.425 0.8349515
vt 0.425 0.9902912
vt 0.2916667 0.9902912
vt 0.575 0.8349515
vt 0.7083333 0.8349515
vt 0.7083333 0.9902912
vt 0.575 0.9902912
vt 0.7166666 0.1747573
vt 0.85 0.1747573
vt 0.85 0.3300971
vt 0.7166666 0.3300971

# Normal
vn 0 0 -1

# Mesh description
g dungeon_mesh_0003

# Faces
f 1/1/1 2/2/1 3/3/1 4/4/1
f 5/1/1 6/2/1 7/3/1 8/4/1
f 9/1/1 10/2/1 11/3/1 12/4/1
f 13/1/1 14/2/1 15/3/1 16/4/1
f 17/1/1 18/2/1 19/3/1 20/4/1
f 21/1/1 22/2/1 23/3/1 24/4/1
f 25/5/1 26/6/1 27/7/1 28/8/1
f 29/9/1 30/10/1 31/11/1 32/12/1
f 33/13/1 34/14/1 35/15/1 36/16/1
f 37/17/1 38/18/1 39/19/1 40/20/1
f 41/21/1 42/22/1 43/23/1 44/24/1
f 45/25/1 46/26/1 47/27/1 48/28/1
f 49/29/1 50/30/1 51/31/1 52/32/1
f 53/33/1 54/34/1 55/35/1 56/36/1

