# Tiled2Unity generated file. Do not modify by hand.
# Wavefront file for 'dungeon_mesh_0002.obj'

# Vertices (Count = 592)
v -928 -32 0
v -960 -32 0
v -960 0 0
v -928 0 0
v -32 -64 0
v -64 -64 0
v -64 -32 0
v -32 -32 0
v -64 -64 0
v -96 -64 0
v -96 -32 0
v -64 -32 0
v -96 -64 0
v -128 -64 0
v -128 -32 0
v -96 -32 0
v -128 -64 0
v -160 -64 0
v -160 -32 0
v -128 -32 0
v -160 -64 0
v -192 -64 0
v -192 -32 0
v -160 -32 0
v -192 -64 0
v -224 -64 0
v -224 -32 0
v -192 -32 0
v -224 -64 0
v -256 -64 0
v -256 -32 0
v -224 -32 0
v -256 -64 0
v -288 -64 0
v -288 -32 0
v -256 -32 0
v -320 -64 0
v -352 -64 0
v -352 -32 0
v -320 -32 0
v -352 -64 0
v -384 -64 0
v -384 -32 0
v -352 -32 0
v -384 -64 0
v -416 -64 0
v -416 -32 0
v -384 -32 0
v -416 -64 0
v -448 -64 0
v -448 -32 0
v -416 -32 0
v -448 -64 0
v -480 -64 0
v -480 -32 0
v -448 -32 0
v -480 -64 0
v -512 -64 0
v -512 -32 0
v -480 -32 0
v -512 -64 0
v -544 -64 0
v -544 -32 0
v -512 -32 0
v -544 -64 0
v -576 -64 0
v -576 -32 0
v -544 -32 0
v -608 -64 0
v -640 -64 0
v -640 -32 0
v -608 -32 0
v -640 -64 0
v -672 -64 0
v -672 -32 0
v -640 -32 0
v -672 -64 0
v -704 -64 0
v -704 -32 0
v -672 -32 0
v -704 -64 0
v -736 -64 0
v -736 -32 0
v -704 -32 0
v -800 -64 0
v -832 -64 0
v -832 -32 0
v -800 -32 0
v -832 -64 0
v -864 -64 0
v -864 -32 0
v -832 -32 0
v -864 -64 0
v -896 -64 0
v -896 -32 0
v -864 -32 0
v -896 -64 0
v -928 -64 0
v -928 -32 0
v -896 -32 0
v -928 -64 0
v -960 -64 0
v -960 -32 0
v -928 -32 0
v -32 -96 0
v -64 -96 0
v -64 -64 0
v -32 -64 0
v -64 -96 0
v -96 -96 0
v -96 -64 0
v -64 -64 0
v -96 -96 0
v -128 -96 0
v -128 -64 0
v -96 -64 0
v -128 -96 0
v -160 -96 0
v -160 -64 0
v -128 -64 0
v -160 -96 0
v -192 -96 0
v -192 -64 0
v -160 -64 0
v -192 -96 0
v -224 -96 0
v -224 -64 0
v -192 -64 0
v -224 -96 0
v -256 -96 0
v -256 -64 0
v -224 -64 0
v -256 -96 0
v -288 -96 0
v -288 -64 0
v -256 -64 0
v -320 -96 0
v -352 -96 0
v -352 -64 0
v -320 -64 0
v -352 -96 0
v -384 -96 0
v -384 -64 0
v -352 -64 0
v -384 -96 0
v -416 -96 0
v -416 -64 0
v -384 -64 0
v -416 -96 0
v -448 -96 0
v -448 -64 0
v -416 -64 0
v -448 -96 0
v -480 -96 0
v -480 -64 0
v -448 -64 0
v -480 -96 0
v -512 -96 0
v -512 -64 0
v -480 -64 0
v -512 -96 0
v -544 -96 0
v -544 -64 0
v -512 -64 0
v -544 -96 0
v -576 -96 0
v -576 -64 0
v -544 -64 0
v -608 -96 0
v -640 -96 0
v -640 -64 0
v -608 -64 0
v -640 -96 0
v -672 -96 0
v -672 -64 0
v -640 -64 0
v -672 -96 0
v -704 -96 0
v -704 -64 0
v -672 -64 0
v -704 -96 0
v -736 -96 0
v -736 -64 0
v -704 -64 0
v -800 -96 0
v -832 -96 0
v -832 -64 0
v -800 -64 0
v -832 -96 0
v -864 -96 0
v -864 -64 0
v -832 -64 0
v -864 -96 0
v -896 -96 0
v -896 -64 0
v -864 -64 0
v -896 -96 0
v -928 -96 0
v -928 -64 0
v -896 -64 0
v -928 -96 0
v -960 -96 0
v -960 -64 0
v -928 -64 0
v -32 -128 0
v -64 -128 0
v -64 -96 0
v -32 -96 0
v -64 -128 0
v -96 -128 0
v -96 -96 0
v -64 -96 0
v -96 -128 0
v -128 -128 0
v -128 -96 0
v -96 -96 0
v -128 -128 0
v -160 -128 0
v -160 -96 0
v -128 -96 0
v -160 -128 0
v -192 -128 0
v -192 -96 0
v -160 -96 0
v -192 -128 0
v -224 -128 0
v -224 -96 0
v -192 -96 0
v -224 -128 0
v -256 -128 0
v -256 -96 0
v -224 -96 0
v -256 -128 0
v -288 -128 0
v -288 -96 0
v -256 -96 0
v -320 -128 0
v -352 -128 0
v -352 -96 0
v -320 -96 0
v -352 -128 0
v -384 -128 0
v -384 -96 0
v -352 -96 0
v -384 -128 0
v -416 -128 0
v -416 -96 0
v -384 -96 0
v -416 -128 0
v -448 -128 0
v -448 -96 0
v -416 -96 0
v -448 -128 0
v -480 -128 0
v -480 -96 0
v -448 -96 0
v -480 -128 0
v -512 -128 0
v -512 -96 0
v -480 -96 0
v -512 -128 0
v -544 -128 0
v -544 -96 0
v -512 -96 0
v -544 -128 0
v -576 -128 0
v -576 -96 0
v -544 -96 0
v -608 -128 0
v -640 -128 0
v -640 -96 0
v -608 -96 0
v -640 -128 0
v -672 -128 0
v -672 -96 0
v -640 -96 0
v -672 -128 0
v -704 -128 0
v -704 -96 0
v -672 -96 0
v -704 -128 0
v -736 -128 0
v -736 -96 0
v -704 -96 0
v -800 -128 0
v -832 -128 0
v -832 -96 0
v -800 -96 0
v -832 -128 0
v -864 -128 0
v -864 -96 0
v -832 -96 0
v -864 -128 0
v -896 -128 0
v -896 -96 0
v -864 -96 0
v -896 -128 0
v -928 -128 0
v -928 -96 0
v -896 -96 0
v -928 -128 0
v -960 -128 0
v -960 -96 0
v -928 -96 0
v -32 -160 0
v -64 -160 0
v -64 -128 0
v -32 -128 0
v -64 -160 0
v -96 -160 0
v -96 -128 0
v -64 -128 0
v -96 -160 0
v -128 -160 0
v -128 -128 0
v -96 -128 0
v -128 -160 0
v -160 -160 0
v -160 -128 0
v -128 -128 0
v -160 -160 0
v -192 -160 0
v -192 -128 0
v -160 -128 0
v -192 -160 0
v -224 -160 0
v -224 -128 0
v -192 -128 0
v -224 -160 0
v -256 -160 0
v -256 -128 0
v -224 -128 0
v -256 -160 0
v -288 -160 0
v -288 -128 0
v -256 -128 0
v -320 -160 0
v -352 -160 0
v -352 -128 0
v -320 -128 0
v -352 -160 0
v -384 -160 0
v -384 -128 0
v -352 -128 0
v -384 -160 0
v -416 -160 0
v -416 -128 0
v -384 -128 0
v -416 -160 0
v -448 -160 0
v -448 -128 0
v -416 -128 0
v -448 -160 0
v -480 -160 0
v -480 -128 0
v -448 -128 0
v -480 -160 0
v -512 -160 0
v -512 -128 0
v -480 -128 0
v -512 -160 0
v -544 -160 0
v -544 -128 0
v -512 -128 0
v -544 -160 0
v -576 -160 0
v -576 -128 0
v -544 -128 0
v -608 -160 0
v -640 -160 0
v -640 -128 0
v -608 -128 0
v -640 -160 0
v -672 -160 0
v -672 -128 0
v -640 -128 0
v -672 -160 0
v -704 -160 0
v -704 -128 0
v -672 -128 0
v -704 -160 0
v -736 -160 0
v -736 -128 0
v -704 -128 0
v -800 -160 0
v -832 -160 0
v -832 -128 0
v -800 -128 0
v -832 -160 0
v -864 -160 0
v -864 -128 0
v -832 -128 0
v -864 -160 0
v -896 -160 0
v -896 -128 0
v -864 -128 0
v -896 -160 0
v -928 -160 0
v -928 -128 0
v -896 -128 0
v -32 -192 0
v -64 -192 0
v -64 -160 0
v -32 -160 0
v -64 -192 0
v -96 -192 0
v -96 -160 0
v -64 -160 0
v -96 -192 0
v -128 -192 0
v -128 -160 0
v -96 -160 0
v -128 -192 0
v -160 -192 0
v -160 -160 0
v -128 -160 0
v -160 -192 0
v -192 -192 0
v -192 -160 0
v -160 -160 0
v -192 -192 0
v -224 -192 0
v -224 -160 0
v -192 -160 0
v -224 -192 0
v -256 -192 0
v -256 -160 0
v -224 -160 0
v -256 -192 0
v -288 -192 0
v -288 -160 0
v -256 -160 0
v -320 -192 0
v -352 -192 0
v -352 -160 0
v -320 -160 0
v -352 -192 0
v -384 -192 0
v -384 -160 0
v -352 -160 0
v -384 -192 0
v -416 -192 0
v -416 -160 0
v -384 -160 0
v -416 -192 0
v -448 -192 0
v -448 -160 0
v -416 -160 0
v -448 -192 0
v -480 -192 0
v -480 -160 0
v -448 -160 0
v -480 -192 0
v -512 -192 0
v -512 -160 0
v -480 -160 0
v -512 -192 0
v -544 -192 0
v -544 -160 0
v -512 -160 0
v -544 -192 0
v -576 -192 0
v -576 -160 0
v -544 -160 0
v -608 -192 0
v -640 -192 0
v -640 -160 0
v -608 -160 0
v -640 -192 0
v -672 -192 0
v -672 -160 0
v -640 -160 0
v -672 -192 0
v -704 -192 0
v -704 -160 0
v -672 -160 0
v -704 -192 0
v -736 -192 0
v -736 -160 0
v -704 -160 0
v -800 -192 0
v -832 -192 0
v -832 -160 0
v -800 -160 0
v -832 -192 0
v -864 -192 0
v -864 -160 0
v -832 -160 0
v -864 -192 0
v -896 -192 0
v -896 -160 0
v -864 -160 0
v -896 -192 0
v -928 -192 0
v -928 -160 0
v -896 -160 0
v -32 -224 0
v -64 -224 0
v -64 -192 0
v -32 -192 0
v -64 -224 0
v -96 -224 0
v -96 -192 0
v -64 -192 0
v -96 -224 0
v -128 -224 0
v -128 -192 0
v -96 -192 0
v -128 -224 0
v -160 -224 0
v -160 -192 0
v -128 -192 0
v -160 -224 0
v -192 -224 0
v -192 -192 0
v -160 -192 0
v -192 -224 0
v -224 -224 0
v -224 -192 0
v -192 -192 0
v -224 -224 0
v -256 -224 0
v -256 -192 0
v -224 -192 0
v -256 -224 0
v -288 -224 0
v -288 -192 0
v -256 -192 0
v -320 -224 0
v -352 -224 0
v -352 -192 0
v -320 -192 0
v -352 -224 0
v -384 -224 0
v -384 -192 0
v -352 -192 0
v -384 -224 0
v -416 -224 0
v -416 -192 0
v -384 -192 0
v -416 -224 0
v -448 -224 0
v -448 -192 0
v -416 -192 0
v -448 -224 0
v -480 -224 0
v -480 -192 0
v -448 -192 0
v -480 -224 0
v -512 -224 0
v -512 -192 0
v -480 -192 0
v -512 -224 0
v -544 -224 0
v -544 -192 0
v -512 -192 0
v -544 -224 0
v -576 -224 0
v -576 -192 0
v -544 -192 0
v -608 -224 0
v -640 -224 0
v -640 -192 0
v -608 -192 0
v -640 -224 0
v -672 -224 0
v -672 -192 0
v -640 -192 0
v -672 -224 0
v -704 -224 0
v -704 -192 0
v -672 -192 0
v -704 -224 0
v -736 -224 0
v -736 -192 0
v -704 -192 0
v -800 -224 0
v -832 -224 0
v -832 -192 0
v -800 -192 0
v -832 -224 0
v -864 -224 0
v -864 -192 0
v -832 -192 0
v -864 -224 0
v -896 -224 0
v -896 -192 0
v -864 -192 0
v -896 -224 0
v -928 -224 0
v -928 -192 0
v -896 -192 0

# Texture cooridinates (Count = 12)
vt 0.15 0.6699029
vt 0.2833333 0.6699029
vt 0.2833333 0.8252427
vt 0.15 0.8252427
vt 0.2916667 0.6699029
vt 0.425 0.6699029
vt 0.425 0.8252427
vt 0.2916667 0.8252427
vt 0.4333333 0.6699029
vt 0.5666667 0.6699029
vt 0.5666667 0.8252427
vt 0.4333333 0.8252427

# Normal
vn 0 0 -1

# Mesh description
g dungeon_mesh_0002

# Faces
f 1/1/1 2/2/1 3/3/1 4/4/1
f 5/5/1 6/6/1 7/7/1 8/8/1
f 9/5/1 10/6/1 11/7/1 12/8/1
f 13/5/1 14/6/1 15/7/1 16/8/1
f 17/5/1 18/6/1 19/7/1 20/8/1
f 21/5/1 22/6/1 23/7/1 24/8/1
f 25/5/1 26/6/1 27/7/1 28/8/1
f 29/5/1 30/6/1 31/7/1 32/8/1
f 33/5/1 34/6/1 35/7/1 36/8/1
f 37/5/1 38/6/1 39/7/1 40/8/1
f 41/5/1 42/6/1 43/7/1 44/8/1
f 45/5/1 46/6/1 47/7/1 48/8/1
f 49/5/1 50/6/1 51/7/1 52/8/1
f 53/5/1 54/6/1 55/7/1 56/8/1
f 57/5/1 58/6/1 59/7/1 60/8/1
f 61/5/1 62/6/1 63/7/1 64/8/1
f 65/5/1 66/6/1 67/7/1 68/8/1
f 69/5/1 70/6/1 71/7/1 72/8/1
f 73/5/1 74/6/1 75/7/1 76/8/1
f 77/5/1 78/6/1 79/7/1 80/8/1
f 81/5/1 82/6/1 83/7/1 84/8/1
f 85/5/1 86/6/1 87/7/1 88/8/1
f 89/5/1 90/6/1 91/7/1 92/8/1
f 93/5/1 94/6/1 95/7/1 96/8/1
f 97/5/1 98/6/1 99/7/1 100/8/1
f 101/1/1 102/2/1 103/3/1 104/4/1
f 105/5/1 106/6/1 107/7/1 108/8/1
f 109/5/1 110/6/1 111/7/1 112/8/1
f 113/5/1 114/6/1 115/7/1 116/8/1
f 117/5/1 118/6/1 119/7/1 120/8/1
f 121/5/1 122/6/1 123/7/1 124/8/1
f 125/5/1 126/6/1 127/7/1 128/8/1
f 129/5/1 130/6/1 131/7/1 132/8/1
f 133/5/1 134/6/1 135/7/1 136/8/1
f 137/5/1 138/6/1 139/7/1 140/8/1
f 141/5/1 142/6/1 143/7/1 144/8/1
f 145/5/1 146/6/1 147/7/1 148/8/1
f 149/5/1 150/6/1 151/7/1 152/8/1
f 153/5/1 154/6/1 155/7/1 156/8/1
f 157/5/1 158/6/1 159/7/1 160/8/1
f 161/5/1 162/6/1 163/7/1 164/8/1
f 165/5/1 166/6/1 167/7/1 168/8/1
f 169/5/1 170/6/1 171/7/1 172/8/1
f 173/5/1 174/6/1 175/7/1 176/8/1
f 177/5/1 178/6/1 179/7/1 180/8/1
f 181/5/1 182/6/1 183/7/1 184/8/1
f 185/5/1 186/6/1 187/7/1 188/8/1
f 189/5/1 190/6/1 191/7/1 192/8/1
f 193/5/1 194/6/1 195/7/1 196/8/1
f 197/5/1 198/6/1 199/7/1 200/8/1
f 201/1/1 202/2/1 203/3/1 204/4/1
f 205/5/1 206/6/1 207/7/1 208/8/1
f 209/5/1 210/6/1 211/7/1 212/8/1
f 213/5/1 214/6/1 215/7/1 216/8/1
f 217/5/1 218/6/1 219/7/1 220/8/1
f 221/5/1 222/6/1 223/7/1 224/8/1
f 225/5/1 226/6/1 227/7/1 228/8/1
f 229/5/1 230/6/1 231/7/1 232/8/1
f 233/5/1 234/6/1 235/7/1 236/8/1
f 237/5/1 238/6/1 239/7/1 240/8/1
f 241/5/1 242/6/1 243/7/1 244/8/1
f 245/5/1 246/6/1 247/7/1 248/8/1
f 249/5/1 250/6/1 251/7/1 252/8/1
f 253/5/1 254/6/1 255/7/1 256/8/1
f 257/5/1 258/6/1 259/7/1 260/8/1
f 261/5/1 262/6/1 263/7/1 264/8/1
f 265/5/1 266/6/1 267/7/1 268/8/1
f 269/5/1 270/6/1 271/7/1 272/8/1
f 273/5/1 274/6/1 275/7/1 276/8/1
f 277/5/1 278/6/1 279/7/1 280/8/1
f 281/5/1 282/6/1 283/7/1 284/8/1
f 285/5/1 286/6/1 287/7/1 288/8/1
f 289/5/1 290/6/1 291/7/1 292/8/1
f 293/5/1 294/6/1 295/7/1 296/8/1
f 297/5/1 298/6/1 299/7/1 300/8/1
f 301/1/1 302/2/1 303/3/1 304/4/1
f 305/5/1 306/6/1 307/7/1 308/8/1
f 309/5/1 310/6/1 311/7/1 312/8/1
f 313/5/1 314/6/1 315/7/1 316/8/1
f 317/5/1 318/6/1 319/7/1 320/8/1
f 321/5/1 322/6/1 323/7/1 324/8/1
f 325/5/1 326/6/1 327/7/1 328/8/1
f 329/5/1 330/6/1 331/7/1 332/8/1
f 333/5/1 334/6/1 335/7/1 336/8/1
f 337/5/1 338/6/1 339/7/1 340/8/1
f 341/5/1 342/6/1 343/7/1 344/8/1
f 345/5/1 346/6/1 347/7/1 348/8/1
f 349/5/1 350/6/1 351/7/1 352/8/1
f 353/5/1 354/6/1 355/7/1 356/8/1
f 357/5/1 358/6/1 359/7/1 360/8/1
f 361/5/1 362/6/1 363/7/1 364/8/1
f 365/5/1 366/6/1 367/7/1 368/8/1
f 369/5/1 370/6/1 371/7/1 372/8/1
f 373/5/1 374/6/1 375/7/1 376/8/1
f 377/5/1 378/6/1 379/7/1 380/8/1
f 381/5/1 382/6/1 383/7/1 384/8/1
f 385/5/1 386/6/1 387/7/1 388/8/1
f 389/5/1 390/6/1 391/7/1 392/8/1
f 393/5/1 394/6/1 395/7/1 396/8/1
f 397/5/1 398/6/1 399/7/1 400/8/1
f 401/5/1 402/6/1 403/7/1 404/8/1
f 405/5/1 406/6/1 407/7/1 408/8/1
f 409/5/1 410/6/1 411/7/1 412/8/1
f 413/5/1 414/6/1 415/7/1 416/8/1
f 417/5/1 418/6/1 419/7/1 420/8/1
f 421/5/1 422/6/1 423/7/1 424/8/1
f 425/5/1 426/6/1 427/7/1 428/8/1
f 429/5/1 430/6/1 431/7/1 432/8/1
f 433/5/1 434/6/1 435/7/1 436/8/1
f 437/5/1 438/6/1 439/7/1 440/8/1
f 441/5/1 442/6/1 443/7/1 444/8/1
f 445/5/1 446/6/1 447/7/1 448/8/1
f 449/5/1 450/6/1 451/7/1 452/8/1
f 453/5/1 454/6/1 455/7/1 456/8/1
f 457/5/1 458/6/1 459/7/1 460/8/1
f 461/5/1 462/6/1 463/7/1 464/8/1
f 465/5/1 466/6/1 467/7/1 468/8/1
f 469/5/1 470/6/1 471/7/1 472/8/1
f 473/5/1 474/6/1 475/7/1 476/8/1
f 477/5/1 478/6/1 479/7/1 480/8/1
f 481/5/1 482/6/1 483/7/1 484/8/1
f 485/5/1 486/6/1 487/7/1 488/8/1
f 489/5/1 490/6/1 491/7/1 492/8/1
f 493/5/1 494/6/1 495/7/1 496/8/1
f 497/9/1 498/10/1 499/11/1 500/12/1
f 501/9/1 502/10/1 503/11/1 504/12/1
f 505/9/1 506/10/1 507/11/1 508/12/1
f 509/9/1 510/10/1 511/11/1 512/12/1
f 513/9/1 514/10/1 515/11/1 516/12/1
f 517/9/1 518/10/1 519/11/1 520/12/1
f 521/9/1 522/10/1 523/11/1 524/12/1
f 525/9/1 526/10/1 527/11/1 528/12/1
f 529/9/1 530/10/1 531/11/1 532/12/1
f 533/9/1 534/10/1 535/11/1 536/12/1
f 537/9/1 538/10/1 539/11/1 540/12/1
f 541/9/1 542/10/1 543/11/1 544/12/1
f 545/9/1 546/10/1 547/11/1 548/12/1
f 549/9/1 550/10/1 551/11/1 552/12/1
f 553/9/1 554/10/1 555/11/1 556/12/1
f 557/9/1 558/10/1 559/11/1 560/12/1
f 561/9/1 562/10/1 563/11/1 564/12/1
f 565/9/1 566/10/1 567/11/1 568/12/1
f 569/9/1 570/10/1 571/11/1 572/12/1
f 573/9/1 574/10/1 575/11/1 576/12/1
f 577/9/1 578/10/1 579/11/1 580/12/1
f 581/9/1 582/10/1 583/11/1 584/12/1
f 585/9/1 586/10/1 587/11/1 588/12/1
f 589/9/1 590/10/1 591/11/1 592/12/1

