# Tiled2Unity generated file. Do not modify by hand.
# Wavefront file for 'dungeon_mesh_0004.obj'

# Vertices (Count = 8)
v -736 -224 0
v -768 -224 0
v -768 -192 0
v -736 -192 0
v -768 -224 0
v -800 -224 0
v -800 -192 0
v -768 -192 0

# Texture cooridinates (Count = 8)
vt 0.8583333 0.1747573
vt 0.9916667 0.1747573
vt 0.9916667 0.3300971
vt 0.8583333 0.3300971
vt 0.575 0.6699029
vt 0.7083333 0.6699029
vt 0.7083333 0.8252427
vt 0.575 0.8252427

# Normal
vn 0 0 -1

# Mesh description
g dungeon_mesh_0004

# Faces
f 1/1/1 2/2/1 3/3/1 4/4/1
f 5/5/1 6/6/1 7/7/1 8/8/1

